<svg xmlns="http://www.w3.org/2000/svg" viewBox="0 0 448 512">
  <path fill="#FF9900" d="M257.2 162.7c-48.7 1.8-169.5 15.5-169.5 117.5 0 109.5 138.3 114 183.5 43 21.1-33.3 11.2-48.3 6.3-53.3-15.8-15.8-47.3-8.3-69.3 8.3-23.3 17.3-43.3 24.3-67.3 24.3-33.3 0-58.3-15.3-86.8-15.3-.8 0-2.3.3-4.3.8-5.3 1.8-10.8 3.3-16.3 4.8 0 0-52.5 18.3-67.8-71.8 0 0-20.8-64.8 37.8-64.8 0 0 40.8-.3 88.3 24.8 0 0 11.5 4.8 17.8 4.8 6.3 0 11.5-4.8 22.8-4.8 0 0 39.3 7.5 39.3 40.5-.1 22.2-21.1 33.3-21.1 33.3z"/>
  <path fill="#000000" d="M330.7 225.3c-6.3 1.8-10.8 3.3-16.3 4.8 0 0-52.5 18.3-67.8-71.8 0 0-20.8-64.8 37.8-64.8 0 0 40.8-.3 88.3 24.8 0 0 11.5 4.8 17.8 4.8 6.3 0 11.5-4.8 22.8-4.8 0 0 39.3 7.5 39.3 40.5-.1 22.2-21.1 33.3-21.1 33.3-48.7 1.8-169.5 15.5-169.5 117.5 0 109.5 138.3 114 183.5 43 21.1-33.3 11.2-48.3 6.3-53.3-15.8-15.8-47.3-8.3-69.3 8.3-23.3 17.3-43.3 24.3-67.3 24.3-33.3 0-58.3-15.3-86.8-15.3-.8 0-2.3.3-4.3.8z"/>
</svg> 