<?xml version="1.0" encoding="UTF-8"?>
<svg xmlns="http://www.w3.org/2000/svg" xmlns:xlink="http://www.w3.org/1999/xlink" version="1.1" width="512" height="512" x="0" y="0" viewBox="0 0 64 64" style="enable-background:new 0 0 512 512" xml:space="preserve" class="">
  <rect width="64" height="64" fill="#ffffff" shape="square"/>
  <g transform="matrix(0.9100000000000004,0,0,0.9100000000000004,2.8800003004073993,2.880000171661365)">
    <path d="M32 25.73c4.62 0 8.38-3.76 8.38-8.39S36.62 8.96 32 8.96s-8.38 3.76-8.38 8.38 3.76 8.39 8.38 8.39z" fill="#1c61bc" opacity="1" data-original="#000000" class=""/>
    <path d="M59.56 48.3v-5.92a.94.94 0 0 0-.16-.52c0-.01-.01-.02-.02-.03a.797.797 0 0 0-.15-.17c-.01-.02-.03-.03-.04-.04-.04-.03-.06-.06-.1-.08-.02-.02-.05-.02-.07-.04-.02 0-.02-.01-.04-.02l-18.47-8.85c4.53-6.76 6.83-11.9 6.83-15.29C47.34 8.88 40.46 2 32 2S16.66 8.88 16.66 17.34c0 3.39 2.3 8.53 6.83 15.29L5.02 41.48c-.02.01-.02.02-.04.02-.02.02-.05.02-.07.04-.04.02-.06.05-.1.08-.01.01-.03.02-.04.04-.06.05-.11.11-.15.17-.01.01-.02.02-.02.03a.94.94 0 0 0-.16.52v5.92c0 .38.22.73.57.9l22.45 10.76 4.11 1.94c0 .01.01.01.02.01.12.05.26.09.41.09.14 0 .28-.04.4-.09.01 0 .02 0 .02-.01l26.57-12.7c.35-.17.57-.52.57-.9zm-40.9-30.96C18.66 9.99 24.64 4 32 4s13.34 5.99 13.34 13.34c0 3.09-2.47 8.32-7.14 15.13-2.49 3.65-4.98 6.82-6.2 8.33-.15-.19-.32-.4-.51-.64-1.33-1.67-3.51-4.5-5.69-7.69-4.67-6.81-7.14-12.04-7.14-15.13zM31 59.42 6.44 47.67v-3.7l3.99 1.91 17.03 8.17 3.53 1.68H31zm1-5.43L7.76 42.38l16.87-8.07c.04.05.07.09.1.14.09.13.18.26.27.38.13.18.25.36.37.53.1.13.19.26.29.39.11.16.22.32.34.48l.3.42c.1.14.2.28.3.41.11.15.22.29.32.44.09.12.19.24.27.36.12.15.23.3.33.44.08.11.16.21.24.32.11.15.22.29.33.43.07.09.14.19.21.28.11.14.22.28.32.41.07.09.13.17.19.25.11.14.21.28.32.41.04.06.09.12.14.17.11.15.21.28.32.41.03.05.07.09.1.13.1.13.2.26.3.38l.09.12c.1.12.19.23.27.33.02.03.04.05.05.07.41.51.69.84.79.96.03.04.04.05.04.06.19.22.47.35.77.35s.58-.13.77-.35c0-.01.01-.02.04-.06.1-.12.38-.46.79-.97.02-.02.03-.04.05-.06.08-.1.18-.22.27-.34.03-.03.06-.07.09-.1.09-.13.2-.26.3-.39.04-.04.07-.08.1-.13.11-.13.21-.26.32-.4.05-.06.09-.12.14-.18.11-.13.21-.27.32-.41.06-.08.12-.16.19-.24.1-.14.21-.28.32-.43.07-.08.14-.17.21-.27.11-.14.22-.29.33-.44.08-.1.15-.2.23-.3.11-.15.22-.3.34-.45.09-.12.17-.24.26-.36.11-.14.22-.29.33-.44.1-.13.19-.27.29-.4l.32-.44c.1-.14.21-.3.32-.45l.3-.42.36-.51c.09-.13.18-.26.28-.39.03-.05.06-.09.1-.14l16.87 8.07L52.87 44zm25.56-6.32L35.67 58.15 33 59.42v-3.69l8.12-3.89 16.44-7.87z" fill="#1c61bc" opacity="1" data-original="#000000" class=""/>
  </g>
</svg>
